<mxfile host="app.diagrams.net" modified="2024-07-17T22:58:05.742Z" agent="Mozilla/5.0 (Windows NT 10.0; Win64; x64) AppleWebKit/537.36 (KHTML, like Gecko) Chrome/126.0.0.0 Safari/537.36" etag="--NMVqOjIBNyoX8TswS8" version="24.7.1" type="github">
  <diagram name="Page-1" id="2cc2dc42-3aac-f2a9-1cec-7a8b7cbee084">
    <mxGraphModel dx="1096" dy="753" grid="1" gridSize="10" guides="1" tooltips="1" connect="1" arrows="1" fold="1" page="1" pageScale="1" pageWidth="1100" pageHeight="850" background="none" math="0" shadow="0">
      <root>
        <mxCell id="0" />
        <mxCell id="1" parent="0" />
        <mxCell id="7026571954dc6520-1" value="" style="strokeWidth=1;shadow=0;dashed=0;align=center;html=1;shape=mxgraph.mockup.containers.browserWindow;rSize=0;strokeColor=#666666;mainText=,;recursiveResize=0;rounded=0;labelBackgroundColor=none;fontFamily=Verdana;fontSize=12" parent="1" vertex="1">
          <mxGeometry x="70" y="70" width="910" height="920" as="geometry" />
        </mxCell>
        <mxCell id="Tly2Nsi51T1OpMelOg0m-8" value="" style="rounded=0;whiteSpace=wrap;html=1;" parent="7026571954dc6520-1" vertex="1">
          <mxGeometry x="810" y="120" width="60" height="30" as="geometry" />
        </mxCell>
        <mxCell id="Tly2Nsi51T1OpMelOg0m-7" value="" style="rounded=0;whiteSpace=wrap;html=1;labelBackgroundColor=#FF8000;labelBorderColor=none;" parent="7026571954dc6520-1" vertex="1">
          <mxGeometry y="120" width="580" height="30" as="geometry" />
        </mxCell>
        <mxCell id="7026571954dc6520-2" value="Page 1" style="strokeWidth=1;shadow=0;dashed=0;align=center;html=1;shape=mxgraph.mockup.containers.anchor;fontSize=17;fontColor=#666666;align=left;" parent="7026571954dc6520-1" vertex="1">
          <mxGeometry x="60" y="12" width="110" height="26" as="geometry" />
        </mxCell>
        <mxCell id="7026571954dc6520-3" value="&lt;font style=&quot;vertical-align: inherit;&quot;&gt;&lt;font style=&quot;vertical-align: inherit;&quot;&gt;https://www.Tennesseevolsfanhub/conact&lt;/font&gt;&lt;/font&gt;" style="strokeWidth=1;shadow=0;dashed=0;align=center;html=1;shape=mxgraph.mockup.containers.anchor;rSize=0;fontSize=17;fontColor=#666666;align=left;" parent="7026571954dc6520-1" vertex="1">
          <mxGeometry x="131" y="60" width="310" height="26" as="geometry" />
        </mxCell>
        <mxCell id="7026571954dc6520-12" value="Search" style="text;html=1;points=[];align=left;verticalAlign=top;spacingTop=-4;fontSize=15;fontFamily=Verdana" parent="7026571954dc6520-1" vertex="1">
          <mxGeometry x="810" y="120" width="100" height="30" as="geometry" />
        </mxCell>
        <mxCell id="7026571954dc6520-14" value="Search" style="strokeWidth=1;shadow=0;dashed=0;align=center;html=1;shape=mxgraph.mockup.forms.searchBox;strokeColor=#999999;mainText=;strokeColor2=#008cff;fontColor=#666666;fontSize=17;align=left;spacingLeft=3;rounded=0;labelBackgroundColor=none;" parent="7026571954dc6520-1" vertex="1">
          <mxGeometry x="580" y="120" width="220" height="30" as="geometry" />
        </mxCell>
        <mxCell id="7026571954dc6520-21" value="" style="verticalLabelPosition=bottom;shadow=0;dashed=0;align=center;html=1;verticalAlign=top;strokeWidth=1;shape=mxgraph.mockup.markup.line;strokeColor=#999999;rounded=0;labelBackgroundColor=none;fillColor=#ffffff;fontFamily=Verdana;fontSize=12;fontColor=#000000;" parent="7026571954dc6520-1" vertex="1">
          <mxGeometry x="1" y="790" width="910" height="20" as="geometry" />
        </mxCell>
        <mxCell id="Tly2Nsi51T1OpMelOg0m-2" value="volsfanhub" style="text;html=1;align=center;verticalAlign=middle;whiteSpace=wrap;rounded=0;" parent="7026571954dc6520-1" vertex="1">
          <mxGeometry x="10" y="120" width="80" height="30" as="geometry" />
        </mxCell>
        <mxCell id="Tly2Nsi51T1OpMelOg0m-3" value="Home" style="text;html=1;align=center;verticalAlign=middle;whiteSpace=wrap;rounded=0;" parent="7026571954dc6520-1" vertex="1">
          <mxGeometry x="110" y="120" width="60" height="30" as="geometry" />
        </mxCell>
        <mxCell id="Tly2Nsi51T1OpMelOg0m-4" value="Store" style="text;html=1;align=center;verticalAlign=middle;whiteSpace=wrap;rounded=0;" parent="7026571954dc6520-1" vertex="1">
          <mxGeometry x="240" y="120" width="60" height="30" as="geometry" />
        </mxCell>
        <mxCell id="Tly2Nsi51T1OpMelOg0m-5" value="Forum" style="text;html=1;align=center;verticalAlign=middle;whiteSpace=wrap;rounded=0;" parent="7026571954dc6520-1" vertex="1">
          <mxGeometry x="380" y="120" width="60" height="30" as="geometry" />
        </mxCell>
        <mxCell id="Tly2Nsi51T1OpMelOg0m-6" value="contact" style="text;html=1;align=center;verticalAlign=middle;whiteSpace=wrap;rounded=0;" parent="7026571954dc6520-1" vertex="1">
          <mxGeometry x="475" y="120" width="60" height="30" as="geometry" />
        </mxCell>
        <mxCell id="Tly2Nsi51T1OpMelOg0m-15" value="FOOTER VOLS FAN HUB 2024" style="rounded=0;whiteSpace=wrap;html=1;" parent="7026571954dc6520-1" vertex="1">
          <mxGeometry y="860" width="910" height="60" as="geometry" />
        </mxCell>
        <mxCell id="CFtrpXww3m0HtKWbVdK5-10" value="Contact Us" style="text;html=1;align=center;verticalAlign=middle;whiteSpace=wrap;rounded=0;" vertex="1" parent="7026571954dc6520-1">
          <mxGeometry x="370" y="355" width="160" height="70" as="geometry" />
        </mxCell>
        <mxCell id="CFtrpXww3m0HtKWbVdK5-45" value="Images" style="shape=process;whiteSpace=wrap;html=1;backgroundOutline=1;" vertex="1" parent="7026571954dc6520-1">
          <mxGeometry y="170" width="910" height="140" as="geometry" />
        </mxCell>
        <mxCell id="CFtrpXww3m0HtKWbVdK5-46" value="" style="shape=singleArrow;whiteSpace=wrap;html=1;" vertex="1" parent="7026571954dc6520-1">
          <mxGeometry x="820" y="210" width="90" height="60" as="geometry" />
        </mxCell>
        <mxCell id="CFtrpXww3m0HtKWbVdK5-48" value="" style="shape=singleArrow;whiteSpace=wrap;html=1;direction=west;" vertex="1" parent="7026571954dc6520-1">
          <mxGeometry x="1" y="210" width="90" height="60" as="geometry" />
        </mxCell>
        <mxCell id="CFtrpXww3m0HtKWbVdK5-49" value="Prev" style="text;html=1;align=center;verticalAlign=middle;whiteSpace=wrap;rounded=0;" vertex="1" parent="7026571954dc6520-1">
          <mxGeometry x="10" y="180" width="60" height="30" as="geometry" />
        </mxCell>
        <mxCell id="CFtrpXww3m0HtKWbVdK5-50" value="Next" style="text;html=1;align=center;verticalAlign=middle;whiteSpace=wrap;rounded=0;" vertex="1" parent="7026571954dc6520-1">
          <mxGeometry x="835" y="180" width="60" height="30" as="geometry" />
        </mxCell>
        <mxCell id="CFtrpXww3m0HtKWbVdK5-51" value="" style="verticalLabelPosition=bottom;verticalAlign=top;html=1;shape=mxgraph.basic.rounded_frame;dx=10;whiteSpace=wrap;" vertex="1" parent="7026571954dc6520-1">
          <mxGeometry x="20" y="445" width="860" height="60" as="geometry" />
        </mxCell>
        <mxCell id="CFtrpXww3m0HtKWbVdK5-52" value="First Name" style="text;html=1;align=center;verticalAlign=middle;whiteSpace=wrap;rounded=0;" vertex="1" parent="7026571954dc6520-1">
          <mxGeometry x="31" y="410" width="69" height="30" as="geometry" />
        </mxCell>
        <mxCell id="CFtrpXww3m0HtKWbVdK5-53" value="" style="verticalLabelPosition=bottom;verticalAlign=top;html=1;shape=mxgraph.basic.rounded_frame;dx=10;whiteSpace=wrap;" vertex="1" parent="7026571954dc6520-1">
          <mxGeometry x="20" y="540" width="860" height="60" as="geometry" />
        </mxCell>
        <mxCell id="CFtrpXww3m0HtKWbVdK5-54" value="Last Name" style="text;html=1;align=center;verticalAlign=middle;whiteSpace=wrap;rounded=0;" vertex="1" parent="7026571954dc6520-1">
          <mxGeometry x="30" y="510" width="70" height="30" as="geometry" />
        </mxCell>
        <mxCell id="CFtrpXww3m0HtKWbVdK5-55" value="" style="verticalLabelPosition=bottom;verticalAlign=top;html=1;shape=mxgraph.basic.rounded_frame;dx=10;whiteSpace=wrap;" vertex="1" parent="7026571954dc6520-1">
          <mxGeometry x="20" y="630" width="860" height="60" as="geometry" />
        </mxCell>
        <mxCell id="CFtrpXww3m0HtKWbVdK5-56" value="Email" style="text;html=1;align=center;verticalAlign=middle;whiteSpace=wrap;rounded=0;" vertex="1" parent="7026571954dc6520-1">
          <mxGeometry x="30" y="600" width="60" height="30" as="geometry" />
        </mxCell>
        <mxCell id="CFtrpXww3m0HtKWbVdK5-58" value="Comment" style="text;html=1;align=center;verticalAlign=middle;whiteSpace=wrap;rounded=0;" vertex="1" parent="7026571954dc6520-1">
          <mxGeometry x="30" y="690" width="60" height="30" as="geometry" />
        </mxCell>
        <mxCell id="CFtrpXww3m0HtKWbVdK5-59" value="Submit" style="labelPosition=center;verticalLabelPosition=middle;align=center;html=1;shape=mxgraph.basic.button;dx=10;whiteSpace=wrap;" vertex="1" parent="7026571954dc6520-1">
          <mxGeometry x="230" y="800" width="360" height="60" as="geometry" />
        </mxCell>
        <mxCell id="CFtrpXww3m0HtKWbVdK5-57" value="" style="shape=ext;double=1;rounded=1;whiteSpace=wrap;html=1;" vertex="1" parent="1">
          <mxGeometry x="90" y="790" width="850" height="80" as="geometry" />
        </mxCell>
      </root>
    </mxGraphModel>
  </diagram>
</mxfile>
